<svg width="115" height="129" viewBox="0 0 115 129" fill="none" xmlns="http://www.w3.org/2000/svg">
<g clip-path="url(#clip0_2_25)">
<path d="M115 64.5C115 28.8776 89.2564 0 57.5 0C25.7436 0 0 28.8776 0 64.5C0 96.6938 21.027 123.378 48.5156 128.216V83.1445H33.916V64.5H48.5156V50.2898C48.5156 34.1245 57.1 25.1953 70.2342 25.1953C76.5253 25.1953 83.1055 26.4551 83.1055 26.4551V42.3281H75.8549C68.7121 42.3281 66.4844 47.2999 66.4844 52.4007V64.5H82.4316L79.8823 83.1445H66.4844V128.216C93.9732 123.378 115 96.6938 115 64.5Z" fill="#1877F2"/>
<path d="M79.8823 83.1445L82.4316 64.5H66.4844V52.4007C66.4844 47.2999 68.7118 42.3281 75.8549 42.3281H83.1055V26.4551C83.1055 26.4551 76.5251 25.1953 70.2342 25.1953C57.1 25.1953 48.5156 34.1245 48.5156 50.2898V64.5H33.916V83.1445H48.5156V128.216C51.443 128.732 54.4435 129 57.5 129C60.5565 129 63.5568 128.732 66.4844 128.216V83.1445H79.8823Z" fill="white"/>
</g>
<defs>
<clipPath id="clip0_2_25">
<rect width="115" height="129" fill="white"/>
</clipPath>
</defs>
</svg>
