<svg width="115" height="129" viewBox="0 0 115 129" fill="none" xmlns="http://www.w3.org/2000/svg">
<path d="M79.3626 66.5156C79.3626 66.5156 33.412 66.5156 31.6987 66.5156C29.9853 66.5156 28.6098 67.4287 28.1795 68.9062C26.4293 74.9188 21.9542 90.2728 21.5939 91.4237C20.9453 93.4907 21.9183 97.7578 27.0088 97.7578C32.0994 97.7578 59.2969 97.7578 59.2969 97.7578L79.3626 66.5156Z" fill="#9FD661"/>
<path d="M58.0427 80.2592L22.9021 96.3106C22.9021 96.3106 24.1994 97.7578 26.7132 97.7578C28.7248 97.7578 72.5596 97.7578 89.983 97.7578C94.7151 97.7578 95.5569 93.4585 95.1077 91.6636C79.9466 86.8825 58.0427 80.2592 58.0427 80.2592Z" fill="#48C0EB"/>
<path d="M86.984 67.0236L59.9015 79.4045C59.9015 79.4045 88.0468 90.3675 95.2191 93.0947C95.246 92.5928 95.2029 92.0354 95.0556 91.4237C92.5804 83.07 88.6165 69.3587 88.3954 68.6351C88.0747 67.5859 86.984 67.0236 86.984 67.0236Z" fill="#CCD1D9"/>
<path d="M22.885 96.2683C23.9092 95.8017 78.4219 70.9359 86.9876 67.0296C86.4557 66.6658 85.1548 66.5156 85.1548 66.5156H79.3626L21.5041 91.7109C21.5041 91.7109 20.8707 94.1892 22.885 96.2683Z" fill="#FFCF47"/>
<path d="M55.0266 81.6086C55.0266 81.6086 93.3827 96.369 93.6064 96.4416C94.5183 95.8369 95.2901 93.9634 95.2182 92.6824C94.2578 92.3136 60.251 79.2402 60.251 79.2402L55.0266 81.6086Z" fill="#F5F7FA"/>
<path d="M57.0508 29.2266C48.8642 29.2266 42.2266 36.6713 42.2266 45.8555C42.2266 50.2233 46.1222 57.3657 49.6387 64.0384C53.5163 71.3975 57.0508 78.1055 57.0508 78.1055C57.0508 78.1055 61.2743 69.9613 65.5859 61.4766C68.5993 55.5476 71.875 49.664 71.875 45.8555C71.875 36.6713 65.2373 29.2266 57.0508 29.2266ZM57.0508 51.3984C54.8173 51.3984 53.0078 49.3677 53.0078 46.8633C53.0078 44.3589 54.8173 42.3281 57.0508 42.3281C59.2843 42.3281 61.0938 44.3589 61.0938 46.8633C61.0938 49.3677 59.2843 51.3984 57.0508 51.3984Z" fill="#EF5362"/>
</svg>
